<?xml version="1.0" encoding="utf-8"?>
<!-- Generator: Adobe Illustrator 16.0.4, SVG Export Plug-In . SVG Version: 6.00 Build 0)  -->
<!DOCTYPE svg PUBLIC "-//W3C//DTD SVG 1.1//EN" "http://www.w3.org/Graphics/SVG/1.1/DTD/svg11.dtd">
<svg version="1.1" xmlns="http://www.w3.org/2000/svg" xmlns:xlink="http://www.w3.org/1999/xlink" x="0px" y="0px" width="500px"
	 height="500px" viewBox="0 0 500 500" enable-background="new 0 0 500 500" xml:space="preserve">
<g id="BG_1_" display="none">
	<g id="KMLmYr.tif" display="inline">
		
			<image overflow="visible" width="503" height="522" id="Layer_0" xlink:href="38F3D7E0CE0D48A7.png"  transform="matrix(1 0 0 1 3.6177 16)">
		</image>
	</g>
</g>
<g id="Layer_3" display="none">
	<g id="s0CifJ.tif_1_" display="inline">
		
			<image overflow="visible" width="254" height="191" id="Layer_0_1_" xlink:href="38F3D7E0CE0D48A5.png"  transform="matrix(1 0 0 1 -201.9775 271.8428)">
		</image>
	</g>
	<path display="inline" fill="#FFFFFF" d="M405.539,73.472"/>
</g>
<g id="Nut">
</g>
<g id="Darken_Nut">
</g>
<g id="Nut_Shadow">
</g>
<g id="Shell">
</g>
<g id="Shell_Shadow">
	<g>
		<g>
			<path fill="#C3D74E" d="M242.448,75.731c0,0,37.208-23.783,48.534-24.846c19.712-1.85,30.708-14.605,35.429-15.077
				s16.044-1.185,26.631,5.783c10.587,6.968,13.215,10.195,17.979,17.146c4.766,6.952,11.68,22.169,17.666,43.013
				c5.987,20.844,8.552,28.404,5.401,70.421S306.6,389.563,291.084,410.147c-15.516,20.583-30.704,27.488-36.95,32.947
				c-6.246,5.458-32.807,21.899-66.87,5.531c-34.062-16.367-52.29-119.795-52.29-119.795s58.362-208.513,79.137-231.923
				C234.886,73.497,242.448,75.731,242.448,75.731z"/>
			<g>
				<path d="M244.212,77.502c11.59-7.399,23.518-14.505,35.944-20.409c3.125-1.484,6.325-2.857,9.647-3.839
					c4.856-1.436,9.938-1.569,14.818-3.192c8.263-2.75,14.459-8.679,22.239-12.122c3.389-1.499,8.757-0.645,12.278-0.235
					c8.445,0.984,15.599,5.374,22.159,10.526c8.14,6.39,12.767,16.817,16.688,26.106c7.317,17.335,13.775,36.95,15.289,55.879
					c0.872,10.912,0.235,21.946-0.451,32.848c-0.409,6.49-1.027,12.661-2.531,18.98c-3.196,13.441-7.997,26.531-12.859,39.441
					c-13.189,35.02-28.583,69.246-44.526,103.085c-12.314,26.136-24.641,52.658-39.479,77.489
					c-8.698,14.556-21.544,25.633-35.412,35.102c-5.188,3.542-9.762,7.547-15.425,10.385c-9.837,4.93-20.906,6.852-31.841,6.188
					c-11.001-0.668-23.982-4.096-32.104-11.966c-5.797-5.617-9.959-12.972-13.643-20.073c-8.27-15.942-13.894-33.262-18.739-50.505
					c-3.417-12.16-6.337-24.475-8.771-36.87c-0.785-3.999-0.325-5.258,0.851-9.406c16.165-57.011,32.931-114.017,52.712-169.89
					c5.771-16.299,11.553-32.959,19.641-48.289c4.301-8.152,10.771-14.565,17.667-20.637c3.123-2.75,10.688-9.915,15.698-8.572
					c-0.222-0.06-1.886-3.231-3.227-3.591c-2.155-0.577-5.049,1.054-6.818,1.988c-8.52,4.496-15.95,12.404-22.057,19.666
					c-5.536,6.582-8.797,15.567-12.078,23.388c-12.309,29.347-21.936,59.891-31.533,90.204c-9.54,30.134-18.598,60.42-27.393,90.779
					c-2.326,8.028-4.631,16.062-6.903,24.106c-1.069,3.782-0.317,6.184,0.498,10.183c6.181,30.36,14.29,61.898,29.442,89.128
					c7.099,12.757,16.2,23.673,29.942,29.262c19.235,7.823,42.104,6.152,59.33-5.734c14.849-10.247,30.008-21.19,40.44-36.178
					c5.454-7.836,9.794-16.56,14.232-24.988c16.255-30.868,31.128-62.503,45.358-94.347c13.939-31.195,27.889-62.87,37.753-95.639
					c8.813-29.276,8.388-61.216-0.022-90.464c-5.339-18.566-11.539-38.631-24.558-53.428c-6.045-6.87-14.466-12.805-23.005-15.975
					c-6.71-2.491-16.495-3.926-22.921,0.03c-7.686,4.731-14.76,9.457-23.61,11.857c-3.98,1.08-8.107,1.107-12.041,2.364
					c-3.485,1.114-6.828,2.711-10.115,4.301c-11.764,5.689-23.083,12.492-34.093,19.521
					C240.372,74.158,243.385,78.03,244.212,77.502z"/>
			</g>
		</g>
		<path opacity="0.6" fill="#939F12" d="M244.029,122.186c0,0,38.024,22.989,61.004-15.795s23.988-40.983,31.764-48.507
			c7.776-7.523,13.691-3.868,7.921,6.383c-14.721,26.153-18.99,60.439-14.723,74.88c4.268,14.44,16.921,26.879,25.821,32.142
			c24.726,18.868,32.543,101.667-4.427,158.869S185.837,446.892,185.837,446.892s-46.745-129.979-9.894-232.897
			C212.795,111.078,244.029,122.186,244.029,122.186z"/>
		<path opacity="0.1" d="M231.979,256.458c-28.218,114.723-40.569,196.755-51.659,194.029
			c-11.09-2.729-16.719-89.184,11.498-203.907C220.035,131.856,257.163,44.423,273.1,56.788
			C279.331,61.623,260.195,141.734,231.979,256.458z"/>
		<path opacity="0.1" d="M300.276,282.235c54.147-105.003,98.762-174.941,88.613-180.177
			c-10.152-5.233-77.229,124.269-150.662,216.819c-21.647,27.283-31.91,40.24-51.6,131.251
			C184.96,457.836,246.127,387.238,300.276,282.235z"/>
		<g>
			<path fill="#FCF9DB" d="M273.132,32.918c2.07,0.576,4.692,4.274-0.032,23.87c-1.574,6.532-3.965,14.83-7.465,25.367
				c-14,42.15-56.546,221.392-60.332,232.972c-3.786,11.58-13.932,59.574-14.259,73.252c-0.328,13.677-4.935,35.349-6.343,50.42
				c-1.408,15.071,20.901-58.636,35.104-81.243s55.973-81.587,55.973-81.587s71.37-110.08,85.404-128.599
				c14.033-18.519,25.623-43.324,29.122-47.281c3.499-3.956,11.078-9.363,14.859-7.629s0.88,8.983,1.448,13.742
				c0.568,4.758,9.865,21.697,8.096,64.832c-1.77,43.135-28.323,126.776-56.525,173.202s-28.727,55.829-55.354,78.846
				c-26.628,23.017-69.25,35.887-92.576,42.095c-14.519,2.357-21.64,6.286-35.609,0.45c-13.97-5.836-32.909-22.534-53.693-66.323
				c-20.784-43.79-23.526-100.496,3.377-173.867c26.903-73.371,26.571-102.895,51.357-129.002
				C200.472,70.328,270.371,32.15,273.132,32.918z"/>
			<g>
				<path d="M272.147,34.362c3.588,1.171-0.462,17.383-1.06,20.062c-2.322,10.416-5.803,20.508-9.014,30.667
					c-3.896,12.327-7.228,24.84-10.567,37.327c-9.558,35.728-18.468,71.629-27.379,107.522
					c-6.592,26.555-12.896,53.196-19.87,79.654c-2.836,10.762-5.73,21.441-8.063,32.341c-2.116,9.888-4.049,19.821-5.676,29.802
					c-1.309,8.023-1.682,15.963-2.452,24.032c-1.228,12.86-3.804,25.56-5.369,38.379c-0.212,1.736-1.072,4.674-0.41,6.485
					c0.626,1.715,3.119,2.533,4.641,1.421c2.441-1.784,3.526-6.877,4.548-9.501c2.81-7.21,5.426-14.496,8.118-21.75
					c6.147-16.562,12.075-33.593,20.599-49.117c8.247-15.021,18.962-29.009,28.687-43.085c11.855-17.161,24.159-34.011,35.53-51.496
					c17.662-27.158,35.385-54.278,53.332-81.249c7.506-11.278,14.989-22.588,22.843-33.629c5.397-7.587,10.781-15.088,15.601-23.074
					c5.258-8.713,9.723-17.935,15.205-26.507c2.506-3.918,7.332-7.601,11.833-8.726c2.189-0.547,0.714,11.25,1.066,12.933
					c0.896,4.275,2.625,8.42,3.714,12.657c5.266,20.495,5.675,42.699,3.191,63.614c-2.669,22.488-8.557,44.656-15.221,66.25
					c-7.459,24.17-16.497,47.949-27.525,70.722c-10.296,21.261-23.177,41.339-35.006,61.772
					c-8.648,14.94-18.574,27.686-31.588,39.102c-18.915,16.593-42.8,26.735-66.396,34.72c-10.248,3.467-20.649,6.675-31.267,8.744
					c-5.868,1.144-11.625,2.663-17.65,2.474c-5.286-0.166-10.536-2.237-15.132-4.769c-16.547-9.115-28.016-26.439-37.261-42.311
					c-12.167-20.886-21.103-42.97-24.826-66.913c-3.916-25.182-2.071-50.927,2.815-75.832c5.831-29.72,17.5-57.632,26.707-86.366
					c6.219-19.409,11.265-39.257,18.315-58.391c5.27-14.303,12.741-27.318,23.787-37.942c15.797-15.193,35.023-27.165,53.657-38.514
					c8.65-5.269,17.43-10.336,26.365-15.107c2.886-1.541,5.795-3.042,8.749-4.449c0.947-0.451,1.903-0.882,2.873-1.284
					c1.009-0.418,1.686-0.275,0.192-0.475c3.01,0.403,3.774-2.868,0.693-3.28c-3.181-0.426-6.721,1.958-9.428,3.306
					c-6.553,3.26-12.95,6.844-19.305,10.473c-17.783,10.154-35.222,21.104-51.61,33.4c-12.856,9.646-24.584,20.385-32.585,34.482
					c-8.102,14.274-12.535,30.481-17.218,46.099c-7.77,25.916-16.701,51.315-25.324,76.946
					c-8.953,26.61-14.876,54.416-15.637,82.538c-1.249,46.156,15.107,92.264,44.885,127.667
					c10.157,12.076,23.607,22.919,39.919,24.158c5.287,0.401,10.64-0.846,15.774-1.918c5.395-1.126,10.693-2.212,16-3.699
					c10.68-2.993,21.238-6.41,31.615-10.325c22.578-8.521,43.635-19.85,61.3-36.443c12.137-11.4,20.769-24.856,28.984-39.217
					c11.976-20.932,24.972-41.298,35.176-63.183c10.461-22.435,18.996-45.796,26.162-69.477
					c12.336-40.763,21.358-85.036,10.521-127.216c-1.046-4.073-2.709-8.034-3.57-12.145c-0.843-4.024,1.064-8.152,0.153-12.218
					c-0.803-3.58-4.909-4.272-7.938-3.938c-8.088,0.892-13.83,8.815-17.493,15.263c-5.96,10.489-11.698,21.074-18.309,31.179
					c-7.226,11.044-15.298,21.589-22.682,32.543c-9.641,14.304-19.142,28.702-28.622,43.112
					c-13.617,20.7-27.165,41.447-40.648,62.236c-15.909,24.53-33.767,47.85-49.919,72.242c-17.773,26.84-26.35,57.833-38.309,87.438
					c-0.633,1.568-1.267,3.169-2.127,4.63c-0.683,1.159,4.051,2.885,3.856,1.115c-0.183-1.651,0.302-3.512,0.49-5.145
					c1.478-12.836,4.027-25.523,5.368-38.379c0.841-8.059,1.168-16.005,2.453-24.032c1.597-9.984,3.577-19.911,5.676-29.802
					c4.513-21.259,10.634-42.21,15.872-63.308c8.636-34.788,17.192-69.596,25.999-104.342c6.496-25.629,12.998-51.277,20.277-76.697
					c3.493-12.197,7.75-24.16,11.06-36.408c2.092-7.739,4.3-16,3.849-24.091c-0.151-2.707-1.214-5.731-4.027-6.649
					C271.602,30.653,268.992,33.332,272.147,34.362z"/>
			</g>
		</g>
		<path opacity="0.1" fill="#754C24" d="M110.078,352.494c2.018,17.083,9.084,41.836,29.827,77.18
			c2.134,4.899,22.672,29.598,34.903,34.28c12.231,4.682,26.188,0.718,39.202-3.045c86.267-27.106,96.1-47.614,106.01-59.826
			c-13.38,7.56-74.443,46.836-76.151,33.619c-1.708-13.217-39.437,21.609-43.646,11.242c-4.209-10.366-16.282,1.686-18.663-6.66
			c-2.381-8.345-15.876-37.585-18.229-31.392s-17.533-14.762-19.327-7.245c-1.795,7.518-15.371-17.874-17.837-28.058
			C123.699,362.406,114.068,353.415,110.078,352.494z"/>
	</g>
</g>
<g id="Top_Shell_Shadow" display="none">
	<path display="inline" opacity="0.1" fill="#8C6239" d="M339.809,69.539c0,0-7.303,15.169-10.674,42.135
		s-12.922,65.73-15.73,74.719s-6.18,29.775,19.663-7.865s23.597-36.517,29.214-35.393s11.236,54.494,12.359,26.404
		s1.124-42.697-9.551-63.483C345.241,67.407,339.809,69.539,339.809,69.539z"/>
	<path display="inline" opacity="0.1" fill="#8C6239" d="M137,210.55c3.933-48.314,28.09-119.102,46.629-135.955
		s-8.989,17.978,0,45.506s-1.686,198.877-10.674,132.584C163.966,186.393,133.067,258.865,137,210.55z"/>
</g>
<g id="Layer_5" display="none">
</g>
</svg>
